<svg width="20" height="17" viewBox="0 0 20 17" fill="none" xmlns="http://www.w3.org/2000/svg">
<path d="M5.87492 0.208313C3.09854 0.208313 0.833252 2.4736 0.833252 5.24998C0.833252 7.12738 2.24842 8.89506 3.97355 10.7079C5.69868 12.5208 7.82209 14.3568 9.51383 16.0486C9.64277 16.1774 9.81761 16.2498 9.99992 16.2498C10.1822 16.2498 10.3571 16.1774 10.486 16.0486C12.1777 14.3568 14.3012 12.5208 16.0263 10.7079C17.7514 8.89506 19.1666 7.12738 19.1666 5.24998C19.1666 2.4736 16.9013 0.208313 14.1249 0.208313C12.5316 0.208313 11.1443 1.06379 9.99992 2.51699C8.85554 1.06379 7.46829 0.208313 5.87492 0.208313ZM5.87492 1.58331C7.21718 1.58331 8.33447 2.29758 9.41895 4.01284C9.48096 4.11081 9.56674 4.19152 9.66832 4.24744C9.7699 4.30336 9.88397 4.33268 9.99992 4.33268C10.1159 4.33268 10.2299 4.30336 10.3315 4.24744C10.4331 4.19152 10.5189 4.11081 10.5809 4.01284C11.6654 2.29758 12.7827 1.58331 14.1249 1.58331C16.1583 1.58331 17.7916 3.21661 17.7916 5.24998C17.7916 6.35174 16.6859 8.02157 15.0308 9.7608C13.5216 11.3468 11.6455 13.0038 9.99992 14.6082C8.35436 13.0038 6.47827 11.3468 4.96899 9.7608C3.31392 8.02157 2.20825 6.35174 2.20825 5.24998C2.20825 3.21661 3.84155 1.58331 5.87492 1.58331Z" fill="black"/>
</svg>
