<svg width="96" height="43" viewBox="0 0 96 43" fill="none" xmlns="http://www.w3.org/2000/svg">
<path d="M21.6327 10.2326C21.6304 10.7668 21.516 11.2943 21.2971 11.7796C21.0782 12.2649 20.7598 12.6968 20.3636 13.0462C19.5754 13.7537 18.5618 14.1447 17.5118 14.1465C16.6477 14.1582 15.8034 13.8823 15.107 13.3605C14.4226 12.8265 13.9092 12.097 13.6323 11.2648L13.5347 11.0028L14.7627 10.4317L14.8809 10.7356C15.0894 11.315 15.4439 11.8282 15.9086 12.2236C16.375 12.5979 16.9542 12.796 17.5477 12.7842C18.2458 12.7895 18.9205 12.5278 19.4386 12.0507C19.6931 11.8151 19.8968 11.528 20.0365 11.2078C20.1763 10.8876 20.2492 10.5412 20.2505 10.1907C20.2499 9.94142 20.1925 9.6957 20.0828 9.47293C19.9731 9.25016 19.8142 9.05643 19.6185 8.90703C19.1741 8.56184 18.6912 8.27164 18.1797 8.04252L17.9845 7.92202L15.775 6.73267C15.3408 6.48598 14.9805 6.12365 14.7325 5.6844C14.4845 5.24514 14.3582 4.74545 14.3671 4.2387C14.3581 3.77926 14.4389 3.32261 14.6048 2.89533C14.7706 2.46806 15.0182 2.07871 15.3331 1.74997C15.9945 1.10548 16.8797 0.754985 17.7944 0.775436C18.4569 0.780035 19.1069 0.960616 19.6801 1.29938C20.2304 1.63143 20.6857 2.10473 21.0007 2.67211L21.124 2.90264L20.0964 3.75143L19.9114 3.45278C19.6892 3.0631 19.3814 2.7313 19.0122 2.48349C18.6197 2.24439 18.1692 2.12274 17.7122 2.13245C17.4475 2.13102 17.1853 2.18346 16.9408 2.2867C16.6963 2.38994 16.4745 2.54189 16.2884 2.73366C16.1022 2.92543 15.9554 3.15316 15.8567 3.40349C15.758 3.65383 15.7092 3.92175 15.7133 4.19154C15.7129 4.42417 15.7657 4.65371 15.8673 4.86196C15.969 5.07021 16.1168 5.25147 16.2991 5.39137C16.7118 5.71569 17.1644 5.98344 17.6454 6.18777L17.7481 6.24016L20.0912 7.4819C20.5737 7.74872 20.9737 8.14755 21.246 8.6335C21.5183 9.11946 21.6523 9.67326 21.6327 10.2326ZM26.6735 2.29487H29.8284V13.9945H31.2158V2.29487H34.3707V0.927379H26.6632L26.6735 2.29487ZM54.4669 0.927379H53.0795V13.9945H57.5499V12.627H54.4669V0.927379ZM64.61 0.927379H63.2021V13.9945H67.6981V12.627H64.6151L64.61 0.927379ZM40.0178 7.5605H46.4562V6.19301H40.0178V7.5605ZM40.0178 2.32107H46.4562V0.927379H40.0178V2.32107ZM40.0178 14.0207H46.4562V12.627H40.0178V14.0207ZM77.5587 0L71.9887 13.9945H73.4428L77.5535 3.6676L81.6642 13.9945H83.1184L77.5587 0Z" fill="white"/>
<path d="M95.9077 29.9852C95.8449 29.9255 95.7624 29.8918 95.6765 29.8909H91.0931C85.2456 29.8909 79.6037 29.9538 73.0729 30.7816C72.3638 30.8707 71.1151 31.0226 70.4266 31.075C70.5336 30.9933 70.6333 30.9021 70.7246 30.8026C71.0416 30.4561 71.2801 30.043 71.4234 29.5923V29.5556C71.4296 29.5122 71.4417 29.4698 71.4594 29.4298C71.4727 29.3977 71.483 29.3644 71.4902 29.3303L71.557 29.0578C71.5981 28.8483 71.629 28.6754 71.6444 28.5339C71.6803 28.1409 71.7009 27.748 71.7112 27.376C71.7112 27.2869 71.7112 27.1978 71.7112 27.1035C71.7112 27.0092 71.7112 26.8992 71.7112 26.7997C71.7112 26.5167 71.7112 26.4591 71.6444 26.3962C71.611 26.359 71.5692 26.3305 71.5227 26.3131C71.4762 26.2958 71.4263 26.2902 71.3772 26.2967C71.2727 26.3251 71.1782 26.3832 71.1049 26.4643L70.7914 26.763C70.3251 27.225 69.8326 27.6589 69.3167 28.0624C69.0701 28.2457 68.8029 28.4291 68.5459 28.5863C67.7625 29.0535 66.9386 29.4463 66.0847 29.7599C64.0727 30.5189 61.9838 31.0462 59.857 31.3318C59.7262 31.3522 59.5973 31.3837 59.4716 31.4261L59.9443 30.6768C60.2835 30.1529 60.7048 29.4875 61.0183 28.9583C61.193 28.6596 61.3111 28.4344 61.3934 28.2667C61.4756 28.099 61.5475 27.8895 61.4602 27.8004C61.3728 27.7113 61.2187 27.8004 61.1724 27.8266C59.8504 28.8059 58.4455 29.6633 56.9744 30.3887C55.9878 30.8131 55.587 30.7502 55.4329 30.6192C55.0629 30.3153 55.4842 29.2727 55.7103 28.712C55.7617 28.5758 55.808 28.4605 55.8388 28.3715C55.8696 28.2824 55.9107 28.1671 55.8388 28.0938C55.815 28.0759 55.7862 28.0663 55.7566 28.0663C55.727 28.0663 55.6982 28.0759 55.6744 28.0938C53.6996 29.1446 51.6464 30.0346 49.534 30.7554C49.091 30.9056 48.6288 30.9886 48.1621 31.0017C48.0605 31.0099 47.9584 30.9949 47.8633 30.9577C47.7682 30.9206 47.6824 30.8622 47.6123 30.7869C47.2886 30.3625 47.8178 29.4822 48.2443 28.7749C48.3882 28.5391 48.5218 28.3191 48.6143 28.1252C48.7992 27.7585 48.8095 27.6484 48.7581 27.5698C48.7443 27.5485 48.725 27.5314 48.7024 27.5203C48.6798 27.5092 48.6547 27.5046 48.6297 27.507C47.6265 27.5484 46.6331 27.7246 45.6751 28.0309C45.0664 28.2497 44.4825 28.5342 43.9332 28.8797C42.8696 29.5084 41.7648 30.1581 38.6664 30.2943C38.1191 30.3172 37.579 30.1612 37.1249 29.849C36.8916 29.7149 36.6982 29.5189 36.5653 29.2818C36.4323 29.0448 36.3647 28.7755 36.3695 28.5025C36.4659 27.6672 36.7681 26.8705 37.2482 26.1866C37.4075 25.9142 37.8699 25.2173 38.6253 24.1171L40.4956 24.1537C40.5408 24.1556 40.5859 24.1482 40.6283 24.132C40.6707 24.1158 40.7094 24.0911 40.7423 24.0594C40.775 24.0266 40.8009 23.9875 40.8186 23.9443C40.8362 23.9011 40.8452 23.8547 40.845 23.8079C40.8451 23.7199 40.8111 23.6354 40.7506 23.5727C40.69 23.5099 40.6077 23.474 40.5213 23.4726H39.1134C39.802 22.6081 40.3415 21.9008 40.7166 21.3192C40.7603 21.2541 40.789 21.1797 40.8005 21.1017C40.8121 21.0237 40.8062 20.944 40.7834 20.8686C40.7674 20.7939 40.7345 20.724 40.6871 20.6646C40.6398 20.6053 40.5794 20.5581 40.5108 20.527C40.4423 20.4959 40.3675 20.4816 40.2925 20.4855C40.2176 20.4893 40.1446 20.5111 40.0794 20.549C39.5978 20.9117 39.1777 21.3524 38.8359 21.8536L37.6798 23.394L34.4272 23.3311C34.3873 23.3308 34.3476 23.3384 34.3106 23.3537C34.2736 23.369 34.2399 23.3916 34.2114 23.4202C34.1816 23.4492 34.1579 23.4842 34.142 23.523C34.1261 23.5618 34.1182 23.6035 34.1189 23.6455C34.1189 23.7419 34.1561 23.8344 34.2225 23.903C34.2888 23.9716 34.379 24.0109 34.4735 24.0123L37.2379 24.0699C36.4183 25.3047 35.4613 26.4387 34.3861 27.4493C33.5573 28.1652 32.6463 28.7757 31.6731 29.2674C31.0446 29.5893 30.3851 29.8439 29.7051 30.0271C29.1517 30.174 28.5811 30.2428 28.0094 30.2315C28.153 30.1269 28.2855 30.0075 28.4051 29.8752C28.7287 29.4999 28.9704 29.0588 29.1142 28.5811C29.1636 28.421 29.2048 28.2583 29.2375 28.0938C29.3501 27.5291 29.4188 26.9562 29.443 26.3805V26.1709C29.443 25.9613 29.4739 25.7413 29.4944 25.5317C29.4944 25.495 29.4944 25.4584 29.4944 25.4112C29.5125 25.2949 29.5125 25.1764 29.4944 25.0602C29.4852 24.9877 29.454 24.9199 29.4051 24.8664C29.3563 24.8128 29.2923 24.7762 29.2221 24.7615C29.0576 24.7144 28.9549 24.8715 28.8984 24.9658L28.8573 25.0182C28.7802 25.1178 28.698 25.2173 28.6055 25.3221C28.4359 25.516 28.2612 25.7046 28.0659 25.8985C27.6973 26.2744 27.3042 26.6245 26.8893 26.9464C26.6478 27.135 26.3754 27.3236 26.0774 27.5227C25.7794 27.7218 25.358 27.9838 24.9367 28.23C23.7918 28.8376 22.5858 29.3172 21.3398 29.6604C18.1132 30.652 14.7751 31.2173 11.4074 31.3422C7.71388 31.4287 4.01874 31.2747 0.344487 30.8812C0.260782 30.8754 0.17822 30.9035 0.114725 30.9594C0.0512301 31.0153 0.0119292 31.0945 0.00535525 31.1798C-0.000311867 31.2666 0.0278071 31.3521 0.0836063 31.4178C0.139405 31.4835 0.21838 31.5241 0.30338 31.5309C3.3864 31.8085 5.71407 31.95 7.83108 31.9919C9.70144 32.0338 11.3971 31.9919 13.0105 31.8609C14.7047 31.7267 16.3896 31.4905 18.0564 31.1536C18.9145 30.9807 19.788 30.7764 20.6256 30.5511C21.0624 30.4358 21.5094 30.3101 21.9616 30.1738C24.0313 29.6235 25.9596 28.6225 27.6138 27.2398C27.7576 27.114 27.9015 26.983 28.0454 26.8468C28.1583 26.7344 28.2646 26.6155 28.364 26.4905L28.4513 26.391C28.4636 26.3756 28.4774 26.3616 28.4924 26.3491C28.4951 26.3752 28.4951 26.4015 28.4924 26.4276C28.4855 26.5295 28.4735 26.6309 28.4565 26.7315C28.454 26.7804 28.454 26.8294 28.4565 26.8782C28.4609 26.9358 28.4609 26.9936 28.4565 27.0511V27.1507C28.4565 27.245 28.4308 27.3393 28.4205 27.4336C28.4205 27.5122 28.4205 27.5908 28.3845 27.6694C28.3588 27.8475 28.3331 27.9942 28.3023 28.1305C28.2267 28.5206 28.0822 28.8934 27.8758 29.2307C27.6086 29.6342 27.2284 30.0638 26.9715 30.111C26.7373 30.1512 26.4995 30.1652 26.2624 30.1529C25.9746 30.1529 25.6715 30.0795 25.3323 30.0167C25.1319 29.9852 24.9161 29.9381 24.7003 29.8909L24.5205 29.8647C24.1505 29.7442 24.0066 29.7128 23.9347 29.7652C23.8301 29.8474 23.7478 29.9556 23.6956 30.0794C23.6435 30.2032 23.6232 30.3385 23.6367 30.4725C23.6367 30.7921 23.8576 31.0436 24.2892 31.227C24.5933 31.3521 24.9172 31.4196 25.245 31.4261C25.8241 31.4227 26.3886 31.24 26.8636 30.9021C27.3466 30.9021 27.9529 30.9021 28.775 30.8131C30.2533 30.6783 31.682 30.2017 32.9525 29.4194C33.8725 28.8575 34.7142 28.172 35.4549 27.3812C35.4048 27.6454 35.379 27.9138 35.3778 28.1829C35.3562 28.5493 35.4074 28.9164 35.5284 29.2621C35.6493 29.6078 35.8376 29.9251 36.0818 30.1948C36.3993 30.4717 36.7678 30.6811 37.1658 30.8106C37.5637 30.9402 37.9831 30.9873 38.3992 30.9493C39.6761 30.9464 40.9461 30.7576 42.1707 30.3887C42.5216 30.2836 42.865 30.154 43.1984 30.0009C43.1448 30.1425 43.1207 30.2939 43.1278 30.4455C43.1349 30.5971 43.173 30.7454 43.2395 30.8812C43.3507 31.0765 43.5093 31.2394 43.7001 31.3541C43.8909 31.4688 44.1074 31.5315 44.3289 31.5361H44.4316C45.2616 31.469 46.0527 31.1496 46.7028 30.6192C46.6925 30.8304 46.7563 31.0384 46.8826 31.206C47.0595 31.4024 47.2825 31.5497 47.5306 31.634C47.7787 31.7184 48.0437 31.737 48.3008 31.688C50.0581 31.4627 51.9747 30.5144 53.5162 29.7547C53.9016 29.5661 54.251 29.3932 54.5439 29.2307C54.3213 29.5946 54.1485 29.9877 54.0301 30.3991C53.973 30.5441 53.9558 30.7021 53.9803 30.8563C54.0047 31.0104 54.0699 31.1549 54.1688 31.2741C54.3203 31.3861 54.4945 31.4622 54.6785 31.4966C54.8626 31.5311 55.0518 31.5231 55.2325 31.4732C55.7779 31.3771 56.3107 31.2171 56.8202 30.9964C57.8676 30.5608 58.8766 30.035 59.8364 29.4246C59.1736 30.2629 57.7554 31.9552 57.3803 32.3115C56.923 32.6259 56.5684 32.8355 56.3526 32.9822C54.2994 34.2603 52.4286 35.8206 50.7929 37.6191C50.2272 38.2613 49.7548 38.983 49.3901 39.762C49.0898 40.3966 48.9285 41.0903 48.9174 41.7949C48.9174 42.7642 49.3953 42.979 49.8012 42.9895H49.8423C50.2508 42.9755 50.649 42.8546 50.9984 42.6384C51.4906 42.3513 51.9433 41.9989 52.3447 41.5906C53.0603 40.8834 53.6994 40.1 54.251 39.2538L57.9969 33.6266C58.3566 33.1027 58.6032 32.7359 58.7317 32.5787C59.6926 32.0548 61.5526 31.6252 62.9194 31.3213L63.9471 31.0855C64.9561 30.8236 65.9466 30.4928 66.9119 30.0953C68.0173 29.6741 69.056 29.0898 69.995 28.361C70.2981 28.1173 70.5801 27.8473 70.8377 27.5541C70.8447 27.6185 70.8447 27.6836 70.8377 27.748V27.8266C70.8377 27.9628 70.7966 28.1252 70.776 28.2824C70.7422 28.5853 70.6925 28.8861 70.627 29.1836C70.5598 29.5565 70.422 29.9124 70.2211 30.2315C69.9847 30.5825 69.6199 31.0069 69.363 31.0488C69.1392 31.0892 68.9116 31.1032 68.6847 31.0907C68.4021 31.0645 68.1092 31.0226 67.7958 30.965C67.6005 30.9336 67.4052 30.8916 67.1894 30.8445L67.0558 30.8026C66.7013 30.6873 66.5677 30.6611 66.4855 30.7135C66.3853 30.7897 66.3062 30.891 66.2557 31.0076C66.2053 31.1242 66.1853 31.2521 66.1977 31.3789C66.1977 31.6828 66.4084 31.9029 66.8246 32.0915C67.1165 32.2071 67.4261 32.2692 67.7392 32.2749C68.2932 32.2629 68.8306 32.0802 69.2807 31.7509C69.8898 31.7543 70.4986 31.7263 71.1049 31.6671L71.5159 31.6252C72.5796 31.5047 75.4057 31.1798 79.2235 30.9126C84.0227 30.5773 88.5342 30.4568 92.6346 30.5616C93.3437 30.5616 94.0785 30.5616 94.7876 30.5616H95.733C95.7754 30.5617 95.8173 30.5529 95.8562 30.5358C95.8951 30.5187 95.9302 30.4936 95.9591 30.462C96.0181 30.4004 96.0511 30.3176 96.0511 30.2315C96.0511 30.1453 96.0181 30.0626 95.9591 30.0009L95.9077 29.9852ZM44.9711 29.0212C45.8536 28.5718 46.8068 28.2845 47.787 28.1724C47.2842 29.0671 46.5797 29.8268 45.7316 30.3887C45.5283 30.5294 45.2948 30.6186 45.0508 30.6486C44.8068 30.6787 44.5593 30.6489 44.3289 30.5616C44.2252 30.5257 44.1376 30.4531 44.0819 30.3569C44.0263 30.2608 44.0064 30.1475 44.0257 30.0376C44.0617 29.718 44.4111 29.3408 44.9711 29.0212ZM25.9592 30.6821C25.7251 30.8179 25.4574 30.8816 25.1885 30.8654C24.613 30.8654 24.613 30.614 24.613 30.5249C24.609 30.5077 24.609 30.4897 24.613 30.4725C24.6695 30.4725 24.9521 30.5144 25.4402 30.5982L25.9592 30.6821ZM50.0324 42.2402C49.9793 42.2341 49.9285 42.214 49.8853 42.1819C49.842 42.1497 49.8078 42.1066 49.7858 42.0569C49.713 41.9331 49.6723 41.7924 49.6676 41.6482C49.7051 41.0489 49.8812 40.4672 50.1814 39.9506C50.9602 38.5421 51.964 37.276 53.1514 36.2044C54.2465 35.1753 55.4533 34.277 56.7483 33.5271C56.7062 33.6203 56.6564 33.7097 56.5993 33.7943L53.3775 38.9499C52.9411 39.6474 52.4459 40.3048 51.8977 40.9147C51.1166 41.7949 50.4897 42.2402 50.0324 42.2402ZM68.3815 31.5518C68.1609 31.6667 67.9147 31.7209 67.6673 31.709C67.1226 31.709 67.1226 31.4785 67.1226 31.3999C67.1226 31.3213 67.1226 31.3684 67.1226 31.358C67.1226 31.3475 67.4463 31.3999 67.9088 31.4732L68.3815 31.5518Z" fill="white"/>
</svg>
