<svg width="16" height="20" viewBox="0 0 16 20" fill="none" xmlns="http://www.w3.org/2000/svg">
<path d="M8.00004 0.833313C3.70512 0.833313 0.208374 4.33005 0.208374 8.62498C0.208374 10.5531 0.915722 12.3214 2.07751 13.681L2.0811 13.6846L2.08378 13.6881C2.08378 13.6881 5.39842 17.4704 6.57849 18.5964C7.36872 19.3498 8.63047 19.3498 9.4207 18.5964C10.7658 17.3135 13.9172 13.6863 13.9172 13.6863L13.919 13.6837L13.9217 13.681C15.0845 12.3213 15.7917 10.5531 15.7917 8.62498C15.7917 4.33005 12.295 0.833313 8.00004 0.833313ZM8.00004 2.20831C11.5518 2.20831 14.4167 5.07324 14.4167 8.62498C14.4167 10.2178 13.8362 11.6649 12.8761 12.7876C12.8698 12.7947 9.64547 16.4824 8.4718 17.6019C8.19961 17.8614 7.79957 17.8614 7.52739 17.6019C6.54647 16.6659 3.13304 12.7989 3.12309 12.7876L3.12219 12.7867C2.16332 11.6641 1.58337 10.2173 1.58337 8.62498C1.58337 5.07324 4.4483 2.20831 8.00004 2.20831ZM8.00004 5.87498C7.14067 5.87498 6.40908 6.222 5.93933 6.75047C5.46958 7.27894 5.25004 7.95658 5.25004 8.62498C5.25004 9.29338 5.46958 9.97102 5.93933 10.4995C6.40908 11.028 7.14067 11.375 8.00004 11.375C8.85942 11.375 9.591 11.028 10.0608 10.4995C10.5305 9.97102 10.75 9.29338 10.75 8.62498C10.75 7.95658 10.5305 7.27894 10.0608 6.75047C9.591 6.222 8.85942 5.87498 8.00004 5.87498ZM8.00004 7.24998C8.51567 7.24998 8.81533 7.41859 9.03308 7.66355C9.25083 7.90852 9.37504 8.26213 9.37504 8.62498C9.37504 8.98783 9.25083 9.34144 9.03308 9.58641C8.81533 9.83138 8.51567 9.99998 8.00004 9.99998C7.48442 9.99998 7.18475 9.83138 6.967 9.58641C6.74925 9.34144 6.62504 8.98783 6.62504 8.62498C6.62504 8.26213 6.74925 7.90852 6.967 7.66355C7.18475 7.41859 7.48442 7.24998 8.00004 7.24998Z" fill="black"/>
</svg>
