<svg width="20" height="20" viewBox="0 0 20 20" fill="none" xmlns="http://www.w3.org/2000/svg">
<path d="M10.2695 0.604126C7.88543 0.604126 6.66864 2.63527 6.16957 3.39889C5.20515 3.03705 4.33284 2.73159 3.70155 2.51982V2.51892C3.47414 2.44275 3.23625 2.44652 3.02122 2.50907C2.80618 2.57163 2.61379 2.69365 2.47515 2.85282C2.19788 3.17117 2.09949 3.68056 2.31044 4.11055C2.57513 4.65161 2.90678 5.37439 3.18593 6.03609C2.88863 5.97415 2.61382 5.92307 2.38027 5.88928C1.82394 5.80869 1.30517 6.11011 1.05002 6.52307C0.794878 6.93604 0.7488 7.49322 1.00795 7.97595C1.65611 9.18297 2.31671 10.1528 2.31671 12.8726C2.31671 16.2132 4.89129 19.1156 8.14434 19.1156C8.07746 19.1156 8.40272 19.1186 8.76739 19.1237C9.13207 19.1287 9.61198 19.1358 10.0923 19.1425C10.5725 19.1491 11.0529 19.1548 11.418 19.1595C11.6006 19.1618 11.7546 19.1645 11.8656 19.1657C11.9212 19.1663 11.9658 19.1663 11.999 19.1666C12.0322 19.1669 11.9984 19.1698 12.0894 19.1657V19.1586C12.1357 19.1597 12.1808 19.1657 12.2273 19.1657C15.5139 19.1657 18.122 16.2564 18.122 12.9003C18.122 10.1698 18.7916 9.19545 19.4478 7.98311C19.9725 7.01421 19.1846 5.72801 18.0692 5.88839L18.0683 5.88928C17.857 5.91969 17.5811 5.95875 17.3352 5.99312C17.353 5.94122 17.3672 5.89141 17.3862 5.83915C17.6168 5.20466 17.9144 4.49581 18.1614 3.93152V3.93062C18.3576 3.48251 18.2255 2.96512 17.9224 2.66215C17.6191 2.35898 17.1033 2.22682 16.6548 2.42224H16.6539C16.0678 2.67829 15.1885 3.03253 14.3569 3.38993C13.9193 2.70336 12.8592 0.604126 10.2695 0.604126ZM10.2695 1.97913C12.0122 1.97913 12.5355 3.0498 13.0687 3.93331C12.0316 4.37267 11.0221 4.81491 10.2561 5.12032C9.75207 4.87699 9.23155 4.64053 8.70473 4.41313C8.29554 4.2365 7.8871 4.07043 7.4828 3.90824C8.0302 3.07716 8.81901 1.97913 10.2695 1.97913ZM16.6906 3.89929C16.4885 4.37507 16.2774 4.86559 16.0945 5.36918C15.9828 5.67658 15.8822 5.95871 15.8017 6.23035C14.9377 6.37064 14.0173 6.53725 13.0634 6.78267C12.7056 6.5007 12.2942 6.22968 11.8495 5.96627C13.4136 5.3228 15.3457 4.48528 16.6906 3.89929ZM3.78749 4.02104C4.94124 4.41548 6.50999 4.96381 8.16046 5.67623C9.33401 6.18279 10.4855 6.7545 11.376 7.30098C11.28 7.33527 11.1818 7.3643 11.0868 7.40035C10.6575 7.56329 10.2387 7.74626 9.83624 7.95089C8.38451 7.45055 6.49585 6.87469 4.84112 6.44161C4.5673 5.65848 4.15503 4.779 3.78749 4.02104ZM18.2644 7.24996C18.271 7.249 18.283 7.24716 18.2393 7.32784V7.32873C17.6159 8.48048 16.747 9.9228 16.747 12.9003C16.747 15.5439 14.6919 17.7907 12.2273 17.7907C9.73221 17.7907 7.7075 15.7529 7.7075 12.9003C7.70759 11.83 8.09715 11.0423 8.77724 10.3553C9.45733 9.66834 10.4492 9.113 11.5747 8.68583C13.8256 7.83148 16.5628 7.49473 18.2644 7.24996ZM2.22003 7.25891C3.40466 7.43512 6.16589 8.20824 8.33949 8.90694C8.15106 9.05912 7.96901 9.21751 7.7997 9.38855C6.91606 10.2812 6.33263 11.4732 6.3325 12.9003C6.3325 14.8764 7.16296 16.6064 8.46661 17.7451C8.36399 17.7437 8.19634 17.7406 8.14434 17.7406C5.72048 17.7406 3.69171 15.5069 3.69171 12.8726C3.69171 9.90815 2.83506 8.47303 2.21913 7.32605C2.20134 7.29291 2.21177 7.27522 2.22003 7.25891Z" fill="black"/>
</svg>
